<?xml version="1.0" standalone="no"?>
<!DOCTYPE svg PUBLIC "-//W3C//DTD SVG 20010904//EN"
 "http://www.w3.org/TR/2001/REC-SVG-20010904/DTD/svg10.dtd">
<svg version="1.0" xmlns="http://www.w3.org/2000/svg"
 width="128.000000pt" height="128.000000pt" viewBox="0 0 128.000000 128.000000"
 preserveAspectRatio="xMidYMid meet">
<metadata>
Created by potrace 1.16, written by Peter Selinger 2001-2019
</metadata>
<g transform="translate(0.000000,128.000000) scale(0.012500,-0.012500)"
fill="#000000" stroke="none">
<path d="M2897 6700 c-361 -34 -694 -185 -952 -431 -283 -271 -446 -601 -485
-984 -30 -292 18 -581 143 -847 145 -311 435 -601 747 -750 572 -272 1268
-180 1785 235 28 23 520 509 1095 1082 740 737 1071 1061 1135 1108 177 131
408 230 615 263 145 23 379 16 510 -16 499 -120 869 -506 967 -1008 23 -118
22 -358 -2 -467 -85 -395 -318 -712 -654 -888 -202 -107 -370 -147 -612 -147
-229 0 -421 48 -627 155 -185 97 -241 145 -698 598 -238 235 -436 427 -441
427 -4 0 -57 -48 -116 -108 l-107 -107 392 -391 c489 -486 515 -510 673 -614
486 -318 1113 -365 1625 -122 309 147 603 442 746 748 106 228 148 424 148
689 0 244 -32 407 -124 622 -120 281 -339 541 -595 705 -513 331 -1180 339
-1723 21 -211 -124 -244 -154 -1357 -1263 -962 -959 -1069 -1062 -1160 -1122
-130 -86 -202 -121 -344 -168 -158 -53 -264 -70 -438 -70 -353 0 -660 127
-907 375 -133 133 -220 265 -289 440 -106 267 -110 609 -11 887 127 356 440
657 804 776 260 85 569 83 828 -3 139 -47 285 -123 405 -213 68 -50 232 -205
519 -490 231 -229 423 -418 426 -420 4 -1 57 48 117 108 l110 111 -425 423
c-253 251 -463 452 -520 495 -297 229 -627 349 -995 364 -66 3 -160 2 -208 -3z"/>
<path d="M2398 5997 c-65 -19 -155 -75 -193 -122 -78 -95 -105 -193 -105 -391
0 -72 -4 -144 -10 -160 -5 -16 -14 -66 -19 -111 -12 -95 -29 -133 -100 -221
-47 -59 -51 -67 -51 -118 0 -46 28 -156 44 -171 2 -3 33 9 68 25 97 46 108 48
108 20 1 -22 1 -22 26 7 13 17 31 54 40 82 l15 53 33 -25 c50 -38 135 -73 210
-86 104 -18 209 4 327 68 4 2 11 -16 17 -39 6 -24 21 -54 34 -68 l23 -25 3 23
c2 12 6 22 8 22 10 0 70 -33 87 -48 23 -21 32 -8 47 66 17 77 2 112 -60 146
-28 15 -50 30 -50 32 0 3 11 24 24 47 52 89 69 214 42 317 -10 39 -12 68 -6
100 57 290 -156 569 -445 586 -40 2 -90 -2 -117 -9z m320 -117 c102 -54 175
-155 201 -278 11 -54 15 -142 6 -142 -3 0 -34 29 -69 65 -44 45 -85 75 -132
97 -66 32 -74 33 -189 33 -120 0 -120 0 -200 -40 -44 -21 -84 -41 -89 -43 -15
-7 3 107 24 154 58 132 164 197 310 191 63 -3 86 -9 138 -37z m-369 -499 c82
-42 129 -131 116 -218 -12 -84 -111 -173 -192 -173 -31 0 -34 2 -31 27 2 22
10 29 35 34 73 15 123 74 123 147 0 77 -45 129 -120 142 -29 4 -36 10 -38 33
-3 25 -1 27 33 27 20 0 53 -9 74 -19z"/>
<path d="M7638 5996 c-248 -72 -402 -314 -361 -566 7 -39 5 -70 -4 -105 -65
-251 103 -501 367 -545 191 -32 398 79 483 258 30 62 32 74 31 167 -3 220 -22
481 -38 530 -49 156 -189 263 -354 271 -47 2 -96 -2 -124 -10z m174 -104 c56
-25 126 -92 152 -146 20 -43 44 -162 34 -172 -4 -3 -24 6 -45 20 -99 68 -271
86 -396 42 -80 -29 -167 -91 -203 -146 -15 -22 -30 -37 -35 -34 -12 7 -11 88
1 144 32 143 126 260 243 302 68 24 183 20 249 -10z m186 -523 c-2 -17 -12
-25 -35 -30 -162 -33 -163 -260 -1 -285 34 -6 38 -10 38 -35 0 -26 -3 -29 -32
-29 -113 1 -210 124 -192 241 13 77 92 155 173 169 43 8 54 1 49 -31z"/>
<path d="M3790 5526 c-33 -12 -35 -15 -36 -62 -1 -36 0 -39 3 -12 4 34 8 39
44 49 21 7 39 18 39 26 0 15 -4 15 -50 -1z"/>
<path d="M3563 5335 c0 -38 2 -53 4 -32 2 20 2 52 0 70 -2 17 -4 1 -4 -38z"/>
<path d="M3761 5338 c-1 -33 -4 -38 -24 -38 -44 0 -65 -50 -29 -68 20 -11 60
1 67 21 3 7 1 37 -4 67 -8 48 -9 51 -10 18z"/>
<path d="M5875 5318 c-3 -7 -4 -119 -3 -248 l3 -235 23 -3 22 -3 -2 248 c-3
227 -4 248 -21 251 -9 2 -19 -3 -22 -10z"/>
<path d="M4234 5307 c-2 -7 -3 -114 -2 -237 3 -217 4 -225 23 -225 19 0 20 8
23 215 1 118 0 225 -3 238 -6 24 -33 30 -41 9z"/>
<path d="M5985 5308 c-3 -7 -4 -117 -3 -243 3 -222 4 -230 23 -230 19 0 20 7
20 240 0 221 -1 240 -18 243 -9 2 -19 -3 -22 -10z"/>
<path d="M4342 5302 c-9 -7 -12 -59 -10 -228 3 -211 4 -219 23 -219 19 0 20 8
23 205 3 245 0 264 -36 242z"/>
<path d="M3506 5244 c-9 -8 -16 -26 -16 -40 0 -20 5 -24 28 -24 52 0 85 62 40
74 -32 8 -35 8 -52 -10z"/>
<path d="M5783 5233 c-10 -3 -13 -42 -13 -143 0 -153 3 -170 31 -170 19 0 19
8 17 157 -3 152 -6 168 -35 156z"/>
<path d="M4127 5207 c-3 -7 -3 -66 -2 -131 3 -114 12 -145 37 -130 4 3 8 66 8
140 0 125 -1 134 -19 134 -10 0 -21 -6 -24 -13z"/>
<path d="M4440 5208 c-3 -120 -2 -240 3 -244 3 -4 13 -4 22 0 13 5 15 24 13
128 -3 108 -5 123 -20 126 -10 2 -18 -2 -18 -10z"/>
<path d="M6080 5085 c0 -136 0 -136 23 -133 22 3 22 6 22 133 0 127 0 130 -22
133 -23 3 -23 3 -23 -133z"/>
<path d="M4030 5075 c0 -58 2 -65 20 -65 18 0 20 7 20 65 0 58 -2 65 -20 65
-18 0 -20 -7 -20 -65z"/>
<path d="M5677 5134 c-9 -9 -9 -86 -1 -108 9 -24 33 -19 40 7 10 41 0 102 -16
105 -9 1 -19 0 -23 -4z"/>
<path d="M4537 5117 c-3 -8 -3 -33 0 -56 4 -32 10 -41 22 -39 23 5 23 101 0
106 -9 2 -19 -3 -22 -11z"/>
<path d="M6182 5073 c2 -46 7 -59 21 -61 15 -3 17 5 17 57 0 55 -2 61 -20 61
-19 0 -21 -5 -18 -57z"/>
<path d="M3254 5076 c-7 -19 3 -36 22 -36 10 0 14 8 12 22 -4 26 -26 36 -34
14z"/>
<path d="M3353 5074 c-8 -21 13 -42 28 -27 13 13 5 43 -11 43 -6 0 -13 -7 -17
-16z"/>
<path d="M3452 5077 c-15 -17 1 -42 23 -33 18 6 17 37 -1 43 -6 2 -16 -2 -22
-10z"/>
<path d="M3544 5075 c-7 -18 3 -35 22 -35 8 0 14 10 14 25 0 27 -27 35 -36 10z"/>
<path d="M3642 5077 c-15 -17 1 -42 23 -33 18 6 17 37 -1 43 -6 2 -16 -2 -22
-10z"/>
<path d="M3741 5080 c-17 -10 -7 -40 13 -40 7 0 16 6 19 14 8 19 -15 37 -32
26z"/>
<path d="M3833 5074 c-8 -21 13 -42 28 -27 13 13 5 43 -11 43 -6 0 -13 -7 -17
-16z"/>
<path d="M3937 5084 c-15 -15 -7 -45 11 -42 9 2 17 12 17 22 0 20 -16 31 -28
20z"/>
<path d="M6284 5075 c-7 -18 3 -35 22 -35 8 0 14 10 14 25 0 27 -27 35 -36 10z"/>
<path d="M6386 5074 c-7 -19 1 -34 19 -34 15 0 24 19 18 38 -6 17 -30 15 -37
-4z"/>
<path d="M6492 5077 c-15 -17 1 -42 23 -33 18 6 17 37 -1 43 -6 2 -16 -2 -22
-10z"/>
<path d="M6594 5076 c-7 -19 3 -36 22 -36 10 0 14 8 12 22 -4 26 -26 36 -34
14z"/>
<path d="M6694 5076 c-7 -19 3 -36 22 -36 10 0 14 8 12 22 -4 26 -26 36 -34
14z"/>
<path d="M6793 5074 c-8 -21 13 -42 28 -27 13 13 5 43 -11 43 -6 0 -13 -7 -17
-16z"/>
<path d="M6886 5081 c-9 -14 4 -41 19 -41 18 0 26 25 12 39 -13 13 -24 14 -31
2z"/>
<path d="M3172 5064 c4 -21 22 -23 26 -1 2 10 -3 17 -13 17 -10 0 -15 -6 -13
-16z"/>
<path d="M6982 5063 c2 -10 10 -18 18 -18 8 0 16 8 18 18 2 12 -3 17 -18 17
-15 0 -20 -5 -18 -17z"/>
<path d="M7060 5066 c0 -9 7 -16 16 -16 9 0 14 5 12 12 -6 18 -28 21 -28 4z"/>
<path d="M6392 4985 c0 -16 2 -22 5 -12 2 9 2 23 0 30 -3 6 -5 -1 -5 -18z"/>
<path d="M6593 4935 c0 -22 2 -30 4 -17 2 12 2 30 0 40 -3 9 -5 -1 -4 -23z"/>
<path d="M6309 4901 c-20 -16 -22 -23 -13 -38 18 -28 65 -23 83 9 18 30 16 34
-20 43 -18 4 -33 0 -50 -14z"/>
<path d="M6504 4836 c-11 -28 1 -51 27 -54 30 -4 59 20 59 49 0 16 -7 19 -40
19 -26 0 -43 -5 -46 -14z"/>
<path d="M2315 4644 c-125 -22 -285 -81 -285 -104 0 -26 90 -142 179 -231 178
-179 383 -285 639 -330 80 -15 270 -17 364 -6 67 8 68 9 62 35 -18 74 -57 171
-96 240 -52 92 -204 250 -290 301 -172 100 -364 132 -573 95z"/>
<path d="M7627 4650 c-63 -11 -171 -46 -221 -72 -116 -58 -261 -193 -331 -307
-42 -69 -92 -193 -101 -248 l-6 -41 58 -9 c87 -12 288 -9 374 6 239 42 441
145 617 314 84 81 193 220 193 246 0 20 -116 69 -230 96 -78 18 -286 28 -353
15z"/>
</g>
</svg>
