<?xml version="1.0" standalone="no"?>
<!DOCTYPE svg PUBLIC "-//W3C//DTD SVG 20010904//EN"
 "http://www.w3.org/TR/2001/REC-SVG-20010904/DTD/svg10.dtd">
<svg version="1.0" xmlns="http://www.w3.org/2000/svg"
 width="128.000000pt" height="128.000000pt" viewBox="0 0 128.000000 128.000000"
 preserveAspectRatio="xMidYMid meet">
<metadata>
Created by potrace 1.16, written by Peter Selinger 2001-2019
</metadata>
<g transform="translate(0.000000,128.000000) scale(0.012500,-0.012500)"
fill="#000000" stroke="none">
<path d="M2905 6739 c-420 -40 -807 -231 -1079 -531 -180 -199 -318 -450 -386
-699 -107 -396 -65 -832 115 -1192 245 -490 680 -814 1225 -914 132 -24 430
-24 555 1 295 57 529 157 755 325 95 70 145 120 475 476 148 160 381 409 518
554 137 146 266 286 287 312 21 26 227 252 458 501 484 522 541 574 738 671
237 117 408 154 673 144 218 -8 366 -47 561 -149 240 -124 445 -334 567 -583
97 -198 137 -371 136 -595 -2 -278 -76 -523 -228 -749 -47 -71 -209 -251 -225
-251 -4 0 -9 86 -9 192 -1 175 -4 196 -25 249 -29 73 -58 108 -124 152 -66 45
-137 61 -239 55 -143 -8 -253 -82 -329 -219 -68 -127 -256 -305 -389 -371 -27
-14 -87 -37 -132 -52 -104 -35 -143 -73 -143 -142 0 -25 5 -54 10 -65 16 -29
1 -25 -108 30 -191 96 -268 168 -808 761 -87 96 -182 198 -209 228 l-50 54
-124 -132 -124 -131 24 -27 c13 -15 55 -61 94 -102 38 -41 205 -220 370 -398
165 -178 329 -347 366 -377 580 -469 1395 -512 2001 -106 203 136 335 269 474
476 403 605 366 1416 -91 1984 -248 309 -569 506 -955 589 -510 110 -1045 -24
-1464 -367 -39 -32 -89 -78 -111 -102 -21 -24 -131 -143 -244 -264 -113 -121
-260 -278 -326 -350 -66 -71 -207 -220 -313 -330 -107 -110 -197 -207 -200
-216 -8 -20 -879 -965 -946 -1027 -25 -23 -76 -62 -113 -86 -76 -49 -233 -130
-239 -123 -3 2 0 16 6 31 35 92 -17 158 -158 199 -185 55 -393 230 -507 428
-51 88 -106 141 -184 177 -50 24 -68 27 -166 27 -98 0 -116 -3 -166 -26 -72
-34 -134 -96 -168 -168 -25 -54 -26 -64 -29 -253 -2 -109 -7 -198 -12 -198
-17 0 -180 182 -230 256 -163 244 -240 521 -226 809 7 152 23 237 66 366 82
246 249 477 460 635 102 78 315 185 424 215 393 106 803 41 1131 -181 119 -81
232 -193 620 -615 176 -192 312 -335 317 -335 3 0 58 59 123 131 l118 130 -35
37 c-19 20 -86 93 -149 162 -148 163 -400 431 -508 544 -305 315 -668 487
-1111 526 -129 11 -157 11 -285 -1z m280 -2892 c39 -19 94 -42 123 -52 28 -9
52 -18 52 -20 0 -17 -265 -47 -337 -38 l-53 6 0 124 0 123 73 -54 c39 -30 104
-70 142 -89z m4080 -105 c-9 -9 -212 -3 -278 8 -121 20 -120 19 -25 54 96 36
172 79 251 142 l52 42 3 -120 c1 -67 0 -123 -3 -126z"/>
<path d="M5207 6413 c-4 -3 -7 -104 -7 -224 l0 -218 -27 15 c-16 7 -48 14 -73
14 -124 0 -194 -122 -130 -227 38 -63 147 -81 208 -36 65 49 67 55 70 284 2
115 6 209 9 209 4 0 25 -11 48 -25 62 -36 84 -103 60 -181 -8 -27 -15 -50 -15
-52 0 -11 54 37 64 57 45 89 27 151 -73 256 -43 44 -85 92 -94 108 -18 27 -28
33 -40 20z"/>
<path d="M7323 5724 c-6 -10 -13 -31 -17 -46 -8 -36 -17 -35 -61 3 -20 18 -38
29 -41 27 -2 -3 -2 -24 2 -46 7 -46 59 -114 104 -137 l28 -15 -34 -67 c-38
-77 -60 -217 -50 -314 24 -241 217 -379 450 -325 67 16 146 52 146 67 0 4 -6
10 -12 12 -7 3 1 3 19 0 61 -10 123 6 155 40 63 67 82 106 89 181 6 62 4 77
-16 116 -13 27 -24 72 -28 113 -9 127 -84 243 -198 310 -80 47 -238 73 -279
47 -12 -8 -11 -10 8 -10 28 0 89 -31 119 -60 34 -31 61 -91 77 -165 11 -53 21
-73 51 -102 59 -57 79 -113 79 -213 0 -95 -19 -152 -70 -205 -16 -16 -28 -32
-27 -35 3 -13 -92 -9 -122 6 -73 34 -124 161 -111 273 12 101 71 192 135 206
l29 6 -17 63 c-42 152 -109 206 -256 206 -86 0 -103 8 -132 64 -10 19 -11 19
-20 0z"/>
<path d="M3066 5691 c-24 -27 -81 -45 -114 -36 -15 4 -65 6 -112 6 -113 -3
-177 -30 -214 -93 -25 -42 -55 -121 -70 -180 -6 -27 -5 -28 37 -28 92 0 181
-53 224 -133 23 -43 23 -151 0 -194 -41 -77 -132 -133 -217 -133 -85 0 -176
56 -217 133 -23 43 -23 151 0 194 23 43 85 102 114 109 18 5 21 9 13 20 -9 9
-6 33 10 91 35 128 76 185 163 223 26 12 47 24 47 27 0 3 -44 3 -97 1 -115 -6
-184 -29 -260 -87 l-51 -39 -24 25 c-78 83 -201 90 -288 16 -89 -77 -109 -185
-69 -378 39 -188 27 -351 -32 -454 -11 -18 -18 -35 -15 -38 2 -2 28 -7 58 -10
116 -12 239 51 293 149 29 52 33 56 47 41 9 -8 38 -23 65 -32 26 -9 68 -29 93
-43 110 -66 267 -75 374 -22 71 34 119 87 160 173 29 62 31 73 30 171 -1 70
-7 120 -18 149 -21 56 -20 68 4 76 28 9 73 59 87 97 13 38 17 187 5 206 -7 9
-13 8 -26 -7z m-829 -351 c1 -34 -2 -60 -7 -60 -11 0 -14 103 -3 113 3 4 7 7
7 7 1 0 2 -27 3 -60z"/>
<path d="M5207 4393 c-4 -3 -7 -105 -7 -225 0 -120 -2 -218 -5 -218 -4 0 -20
7 -37 16 -50 26 -121 14 -164 -27 -55 -53 -63 -116 -24 -188 32 -60 141 -81
208 -39 63 39 72 75 72 301 0 108 4 197 8 197 20 0 94 -63 103 -88 15 -37 14
-114 -1 -141 -16 -31 -5 -38 21 -15 45 41 66 112 50 172 -8 28 -34 63 -89 120
-44 44 -85 94 -92 111 -12 30 -29 39 -43 24z"/>
</g>
</svg>
