<?xml version="1.0" encoding="UTF-8" standalone="no"?>
<svg
   version="1.0"
   width="128.000000pt"
   height="128.000000pt"
   viewBox="0 0 128.000000 128.000000"
   preserveAspectRatio="xMidYMid meet"
   id="svg5"
   sodipodi:docname="icon3.svg"
   inkscape:version="1.4.2 (ebf0e940d0, 2025-05-08)"
   xmlns:inkscape="http://www.inkscape.org/namespaces/inkscape"
   xmlns:sodipodi="http://sodipodi.sourceforge.net/DTD/sodipodi-0.dtd"
   xmlns="http://www.w3.org/2000/svg"
   xmlns:svg="http://www.w3.org/2000/svg">
  <defs
     id="defs5" />
  <sodipodi:namedview
     id="namedview5"
     pagecolor="#ffffff"
     bordercolor="#000000"
     borderopacity="0.25"
     inkscape:showpageshadow="2"
     inkscape:pageopacity="0.0"
     inkscape:pagecheckerboard="0"
     inkscape:deskcolor="#d1d1d1"
     inkscape:document-units="pt"
     inkscape:zoom="4.6875"
     inkscape:cx="85.333333"
     inkscape:cy="85.333333"
     inkscape:window-width="1920"
     inkscape:window-height="1008"
     inkscape:window-x="0"
     inkscape:window-y="0"
     inkscape:window-maximized="1"
     inkscape:current-layer="svg5" />
  <metadata
     id="metadata1">
Created by potrace 1.16, written by Peter Selinger 2001-2019
</metadata>
  <g
     id="g5">
    <path
       d="m 36.3125,43.7625 c -5.25,0.5 -10.0875,2.8875 -13.4875,6.6375 -2.25,2.4875 -3.975,5.625 -4.825,8.7375 -1.3375,4.95 -0.8125,10.4 1.4375,14.9 3.0625,6.125 8.5,10.175 15.3125,11.425 1.65,0.3 5.375,0.3 6.9375,-0.0125 3.6875,-0.7125 6.6125,-1.9625 9.4375,-4.0625 1.1875,-0.875 1.8125,-1.5 5.9375,-5.95 1.85,-2 4.7625,-5.1125 6.475,-6.925 1.7125,-1.825 3.325,-3.575 3.5875,-3.9 0.2625,-0.325 2.8375,-3.15 5.725,-6.2625 6.05,-6.525 6.7625,-7.175 9.225,-8.3875 2.9625,-1.4625 5.1,-1.925 8.4125,-1.8 2.725,0.1 4.575,0.5875 7.0125,1.8625 3,1.55 5.5625,4.175 7.0875,7.2875 1.2125,2.475 1.7125,4.6375 1.7,7.4375 -0.025,3.475 -0.95,6.5375 -2.85,9.3625 C 102.85,75 100.825,77.25 100.625,77.25 c -0.05,0 -0.1125,-1.075 -0.1125,-2.4 -0.0125,-2.1875 -0.05,-2.45 -0.3125,-3.1125 -0.3625,-0.9125 -0.725,-1.35 -1.55,-1.9 C 97.825,69.275 96.9375,69.075 95.6625,69.15 93.875,69.25 92.5,70.175 91.55,71.8875 90.7,73.475 88.35,75.7 86.6875,76.525 86.35,76.7 85.6,76.9875 85.0375,77.175 c -1.3,0.4375 -1.7875,0.9125 -1.7875,1.775 0,0.3125 0.0625,0.675 0.125,0.8125 0.2,0.3625 0.0125,0.3125 -1.35,-0.375 -2.3875,-1.2 -3.35,-2.1 -10.1,-9.5125 -1.0875,-1.2 -2.275,-2.475 -2.6125,-2.85 l -0.625,-0.675 -1.55,1.65 -1.55,1.6375 0.3,0.3375 c 0.1625,0.1875 0.6875,0.7625 1.175,1.275 0.475,0.5125 2.5625,2.75 4.625,4.975 2.0625,2.225 4.1125,4.3375 4.575,4.7125 7.25,5.8625 17.4375,6.4 25.0125,1.325 2.5375,-1.7 4.1875,-3.3625 5.925,-5.95 5.0375,-7.5625 4.575,-17.7 -1.1375,-24.8 -3.1,-3.8625 -7.1125,-6.325 -11.9375,-7.3625 -6.375,-1.375 -13.0625,0.3 -18.3,4.5875 -0.4875,0.4 -1.1125,0.975 -1.3875,1.275 -0.2625,0.3 -1.6375,1.7875 -3.05,3.3 -1.4125,1.5125 -3.25,3.475 -4.075,4.375 -0.825,0.8875 -2.5875,2.75 -3.9125,4.125 -1.3375,1.375 -2.4625,2.5875 -2.5,2.7 -0.1,0.25 -10.9875,12.0625 -11.825,12.8375 -0.3125,0.2875 -0.95,0.775 -1.4125,1.075 -0.95,0.6125 -2.9125,1.625 -2.9875,1.5375 -0.0375,-0.025 0,-0.2 0.075,-0.3875 0.4375,-1.15 -0.2125,-1.975 -1.975,-2.4875 -2.3125,-0.6875 -4.9125,-2.875 -6.3375,-5.35 -0.6375,-1.1 -1.325,-1.7625 -2.3,-2.2125 -0.625,-0.3 -0.85,-0.3375 -2.075,-0.3375 -1.225,0 -1.45,0.0375 -2.075,0.325 -0.9,0.425 -1.675,1.2 -2.1,2.1 -0.3125,0.675 -0.325,0.8 -0.3625,3.1625 -0.025,1.3625 -0.0875,2.475 -0.15,2.475 -0.2125,0 -2.25,-2.275 -2.875,-3.2 -2.0375,-3.05 -3,-6.5125 -2.825,-10.1125 0.0875,-1.9 0.2875,-2.9625 0.825,-4.575 1.025,-3.075 3.1125,-5.9625 5.75,-7.9375 1.275,-0.975 3.9375,-2.3125 5.3,-2.6875 4.9125,-1.325 10.0375,-0.5125 14.1375,2.2625 1.4875,1.0125 2.9,2.4125 7.75,7.6875 2.2,2.4 3.9,4.1875 3.9625,4.1875 0.0375,0 0.725,-0.7375 1.5375,-1.6375 l 1.475,-1.625 L 61.975,59.15 C 61.7375,58.9 60.9,57.9875 60.1125,57.125 c -1.85,-2.0375 -5,-5.3875 -6.35,-6.8 -3.8125,-3.9375 -8.35,-6.0875 -13.8875,-6.575 -1.6125,-0.1375 -1.9625,-0.1375 -3.5625,0.0125 z m 3.5,36.15 c 0.4875,0.2375 1.175,0.525 1.5375,0.65 0.35,0.1125 0.65,0.225 0.65,0.25 0,0.2125 -3.3125,0.5875 -4.2125,0.475 l -0.6625,-0.075 v -1.55 -1.5375 l 0.9125,0.675 c 0.4875,0.375 1.3,0.875 1.775,1.1125 z m 51,1.3125 c -0.1125,0.1125 -2.65,0.0375 -3.475,-0.1 -1.5125,-0.25 -1.5,-0.2375 -0.3125,-0.675 1.2,-0.45 2.15,-0.9875 3.1375,-1.775 l 0.65,-0.525 0.0375,1.5 c 0.0125,0.8375 0,1.5375 -0.0375,1.575 z"
       id="path1"
       style="fill:#000000;stroke:none;stroke-width:0.0125" />
  </g>
  <path
     d="m 68.1275,44.6375 c -0.05,0.0375 -0.0875,1.3 -0.0875,2.8 v 2.725 L 67.7025,49.975 c -0.2,-0.0875 -0.6,-0.175 -0.9125,-0.175 -1.55,0 -2.425,1.525 -1.625,2.8375 0.475,0.7875 1.8375,1.0125 2.6,0.45 0.8125,-0.6125 0.8375,-0.6875 0.875,-3.55 0.025,-1.4375 0.075,-2.6125 0.1125,-2.6125 0.05,0 0.3125,0.1375 0.6,0.3125 0.775,0.45 1.05,1.2875 0.75,2.2625 -0.1,0.3375 -0.1875,0.625 -0.1875,0.65 0,0.1375 0.675,-0.4625 0.8,-0.7125 0.5625,-1.1125 0.3375,-1.8875 -0.9125,-3.2 -0.5375,-0.55 -1.0625,-1.15 -1.175,-1.35 -0.225,-0.3375 -0.35,-0.4125 -0.5,-0.25 z"
     id="path2"
     style="fill:#0000ff;stroke:none;stroke-width:0.0125" />
  <path
     d="m 91.5375,56.45 c -0.075,0.125 -0.1625,0.3875 -0.2125,0.575 -0.1,0.45 -0.2125,0.4375 -0.7625,-0.0375 -0.25,-0.225 -0.475,-0.3625 -0.5125,-0.3375 -0.025,0.0375 -0.025,0.3 0.025,0.575 0.0875,0.575 0.7375,1.425 1.3,1.7125 l 0.35,0.1875 -0.425,0.8375 c -0.475,0.9625 -0.75,2.7125 -0.625,3.925 0.3,3.0125 2.7125,4.7375 5.625,4.0625 0.8375,-0.2 1.825,-0.65 1.825,-0.8375 0,-0.05 -0.075,-0.125 -0.15,-0.15 -0.0875,-0.0375 0.0125,-0.0375 0.2375,0 0.7625,0.125 1.5375,-0.075 1.9375,-0.5 0.7875,-0.8375 1.025,-1.325 1.1125,-2.2625 0.075,-0.775 0.05,-0.9625 -0.2,-1.45 -0.1625,-0.3375 -0.3,-0.9 -0.35,-1.4125 C 100.6,59.75 99.6625,58.3 98.2375,57.4625 97.2375,56.875 95.2625,56.55 94.75,56.875 94.6,56.975 94.6125,57 94.85,57 c 0.35,0 1.1125,0.3875 1.4875,0.75 0.425,0.3875 0.7625,1.1375 0.9625,2.0625 0.1375,0.6625 0.2625,0.9125 0.6375,1.275 C 98.675,61.8 98.925,62.5 98.925,63.75 c 0,1.1875 -0.2375,1.9 -0.875,2.5625 -0.2,0.2 -0.35,0.4 -0.3375,0.4375 0.0375,0.1625 -1.15,0.1125 -1.525,-0.075 -0.9125,-0.425 -1.55,-2.0125 -1.3875,-3.4125 0.15,-1.2625 0.8875,-2.4 1.6875,-2.575 L 96.85,60.6125 96.6375,59.825 c -0.525,-1.9 -1.3625,-2.575 -3.2,-2.575 -1.075,0 -1.2875,-0.1 -1.65,-0.8 -0.125,-0.2375 -0.1375,-0.2375 -0.25,0 z"
     id="path3"
     style="fill:#000000;stroke:none;stroke-width:0.0125" />
  <path
     d="m 38.325,56.8625 c -0.3,0.3375 -1.0125,0.5625 -1.425,0.45 -0.1875,-0.05 -0.8125,-0.075 -1.4,-0.075 -1.4125,0.0375 -2.2125,0.375 -2.675,1.1625 -0.3125,0.525 -0.6875,1.5125 -0.875,2.25 -0.075,0.3375 -0.0625,0.35 0.4625,0.35 1.15,0 2.2625,0.6625 2.8,1.6625 0.2875,0.5375 0.2875,1.8875 0,2.425 C 34.7,66.05 33.5625,66.75 32.5,66.75 c -1.0625,0 -2.2,-0.7 -2.7125,-1.6625 C 29.5,64.55 29.5,63.2 29.7875,62.6625 30.075,62.125 30.85,61.3875 31.2125,61.3 31.4375,61.2375 31.475,61.1875 31.375,61.05 31.2625,60.9375 31.3,60.6375 31.5,59.9125 c 0.4375,-1.6 0.95,-2.3125 2.0375,-2.7875 0.325,-0.15 0.5875,-0.3 0.5875,-0.3375 0,-0.0375 -0.55,-0.0375 -1.2125,-0.0125 -1.4375,0.075 -2.3,0.3625 -3.25,1.0875 l -0.6375,0.4875 -0.3,-0.3125 c -0.975,-1.0375 -2.5125,-1.125 -3.6,-0.2 -1.1125,0.9625 -1.3625,2.3125 -0.8625,4.725 0.4875,2.35 0.3375,4.3875 -0.4,5.675 -0.1375,0.225 -0.225,0.4375 -0.1875,0.475 0.025,0.025 0.35,0.0875 0.725,0.125 1.45,0.15 2.9875,-0.6375 3.6625,-1.8625 0.3625,-0.65 0.4125,-0.7 0.5875,-0.5125 0.1125,0.1 0.475,0.2875 0.8125,0.4 0.325,0.1125 0.85,0.3625 1.1625,0.5375 1.375,0.825 3.3375,0.9375 4.675,0.275 0.8875,-0.425 1.4875,-1.0875 2,-2.1625 0.3625,-0.775 0.3875,-0.9125 0.375,-2.1375 -0.0125,-0.875 -0.0875,-1.5 -0.225,-1.8625 -0.2625,-0.7 -0.25,-0.85 0.05,-0.95 C 37.85,60.45 38.4125,59.825 38.5875,59.35 38.75,58.875 38.8,57.0125 38.65,56.775 c -0.0875,-0.1125 -0.1625,-0.1 -0.325,0.0875 z M 27.9625,61.25 C 27.975,61.675 27.9375,62 27.875,62 27.7375,62 27.7,60.7125 27.8375,60.5875 27.875,60.5375 27.925,60.5 27.925,60.5 c 0.0125,0 0.025,0.3375 0.0375,0.75 z"
     id="path4"
     style="fill:#000000;stroke:none;stroke-width:0.0125" />
  <path
     d="M 61.8875,72.9275 C 61.8375,72.965 61.8,74.24 61.8,75.74 c 0,1.5 -0.025,2.725 -0.0625,2.725 -0.05,0 -0.25,-0.0875 -0.4625,-0.2 -0.625,-0.325 -1.5125,-0.175 -2.05,0.3375 -0.6875,0.6625 -0.7875,1.45 -0.3,2.35 0.4,0.75 1.7625,1.0125 2.6,0.4875 0.7875,-0.4875 0.9,-0.9375 0.9,-3.7625 0,-1.35 0.05,-2.4625 0.1,-2.4625 0.25,0 1.175,0.7875 1.2875,1.1 0.1875,0.4625 0.175,1.425 -0.0125,1.7625 -0.2,0.3875 -0.0625,0.475 0.2625,0.1875 0.5625,-0.5125 0.825,-1.4 0.625,-2.15 -0.1,-0.35 -0.425,-0.7875 -1.1125,-1.5 -0.55,-0.55 -1.0625,-1.175 -1.15,-1.3875 -0.15,-0.375 -0.3625,-0.4875 -0.5375,-0.3 z"
     id="path5"
     style="fill:#000080;stroke:none;stroke-width:0.0125" />
</svg>
